<?xml version="1.0" encoding="UTF-8"?>
<svg version="1.1" xmlns="http://www.w3.org/2000/svg" width="1024" height="1024">
<path d="M0 0 C337.92 0 675.84 0 1024 0 C1024 337.92 1024 675.84 1024 1024 C686.08 1024 348.16 1024 0 1024 C0 686.08 0 348.16 0 0 Z " fill="#FEAB48" transform="translate(0,0)"/>
<path d="M0 0 C337.92 0 675.84 0 1024 0 C1024 337.92 1024 675.84 1024 1024 C686.08 1024 348.16 1024 0 1024 C0 686.08 0 348.16 0 0 Z M207.8125 87.25 C206.89452637 87.46615967 205.97655273 87.68231934 205.03076172 87.9050293 C179.1702757 94.22923708 155.80254178 107.37601712 136 125 C134.71065607 126.06531744 133.41945579 127.1283998 132.125 128.1875 C128.34682237 131.45884892 125.16764849 135.14346484 122 139 C121.5870166 139.50063965 121.1740332 140.0012793 120.74853516 140.51708984 C106.88787721 157.41679576 95.93901708 176.24390724 89.5625 197.25 C89.33997559 197.97968994 89.11745117 198.70937988 88.88818359 199.46118164 C84.34313692 215.52629464 83.5657729 231.07279392 83.61904907 247.67649841 C83.61558685 250.04185468 83.61081852 252.40720934 83.60486734 254.77256066 C83.59370694 260.55778851 83.59634419 266.34289176 83.60501963 272.12812114 C83.61463925 279.06687471 83.60671939 286.00558175 83.5983839 292.94433305 C83.5826311 306.53728705 83.58393814 320.1301986 83.59262064 333.72315659 C83.60018168 345.61954547 83.60213072 357.51591885 83.5985527 369.41230965 C83.59832355 370.20290553 83.59809439 370.99350142 83.59785829 371.80805475 C83.5969242 375.01774089 83.59596899 378.22742702 83.594979 381.43711314 C83.58581162 411.51795185 83.59410695 441.5987636 83.61026969 471.67959814 C83.62450405 498.37438521 83.62323267 525.06912933 83.60888672 551.76391602 C83.59280429 581.78992387 83.58646327 611.81590792 83.59572351 641.84191948 C83.59668559 645.04590451 83.59762411 648.24988955 83.5985527 651.45387459 C83.59878994 652.24271569 83.59902717 653.0315568 83.59927159 653.84430218 C83.6026765 665.72927622 83.59870718 677.61423299 83.59111404 689.49920464 C83.58251809 703.02081805 83.58471934 716.54238257 83.60095628 730.06398993 C83.60896321 736.95834684 83.61235266 743.85262453 83.60200882 750.74698067 C83.59302521 757.0664992 83.59805505 763.3858507 83.61394148 769.70535422 C83.6172738 771.98307692 83.61563042 774.26081392 83.60831411 776.5385273 C83.55844664 793.36283856 84.90358731 809.284226 89.6875 825.5 C89.94168701 826.37035889 90.19587402 827.24071777 90.45776367 828.13745117 C97.98312407 852.92541622 111.3381075 874.23016591 129 893 C129.57492188 893.639375 130.14984375 894.27875 130.7421875 894.9375 C158.20766664 924.23401108 199.85721444 939.79674251 239.37944913 941.23014259 C254.13895773 941.63790768 268.91038986 941.55254904 283.67399585 941.52289867 C289.71747886 941.5147082 295.76091276 941.52548144 301.80438593 941.53548814 C314.90679724 941.5564198 328.00912996 941.55477846 341.11154853 941.54317249 C352.57780664 941.533067 364.04403612 941.53050349 375.51029778 941.53526306 C376.65598765 941.53572137 376.65598765 941.53572137 377.82482277 941.53618894 C380.92614079 941.53743451 384.02745879 941.53870814 387.12877678 941.540028 C416.15614725 941.55223382 445.18346798 941.54121799 474.21083076 941.51964041 C499.9406293 941.50065943 525.67034863 941.5023616 551.40014648 941.52148438 C580.37961268 941.54295092 609.35903502 941.55136971 638.33850807 941.53903532 C641.43351137 941.53775265 644.52851468 941.53650128 647.62351799 941.53526306 C648.385458 941.53494675 649.14739801 941.53463044 649.93242711 941.53430455 C661.38581133 941.52977462 672.83916362 941.53503825 684.29254341 941.54518127 C697.32841423 941.55666894 710.36419492 941.55365183 723.40005464 941.5320583 C730.04030079 941.52141865 736.68042225 941.5173257 743.3206768 941.53065491 C749.41698101 941.54270641 755.51297922 941.53580927 761.60925626 941.5147447 C763.79664665 941.51033208 765.98406372 941.51242193 768.1714365 941.52224785 C816.27667644 941.72150793 860.47302354 926.94197178 895 893 C903.58111708 884.44275251 910.45134359 875.17109038 917 865 C917.64839844 864.00355469 918.29679688 863.00710938 918.96484375 861.98046875 C926.57959266 849.63456065 931.69281513 836.17011558 935.375 822.1875 C935.61355713 821.28217529 935.85211426 820.37685059 936.09790039 819.4440918 C939.90191228 804.16342967 940.28925865 789.41975489 940.26069641 773.766922 C940.26372023 771.41311815 940.26761087 769.05931528 940.27228898 766.70551413 C940.28147518 760.93720558 940.28142946 755.16894967 940.27737736 749.40063644 C940.27303492 742.48447885 940.28032394 735.56834536 940.28786864 728.65219227 C940.30307979 714.31501783 940.30481665 699.97786111 940.30234561 685.64068029 C940.30051026 674.56565957 940.30227764 663.49064462 940.30657005 652.41562462 C940.30717246 650.82234313 940.30777366 649.22906164 940.30837366 647.63578015 C940.30928095 645.23460398 940.31018962 642.8334278 940.31110601 640.43225163 C940.31953134 618.1172096 940.32387417 595.80216975 940.31969929 573.48712635 C940.31954291 572.64651652 940.31938654 571.80590668 940.31922542 570.93982382 C940.31841968 566.67965704 940.31757391 562.41949026 940.31671212 558.15932349 C940.31654103 557.31330045 940.31636994 556.46727741 940.31619367 555.5956173 C940.31584701 553.88475428 940.31549848 552.17389126 940.31514808 550.46302824 C940.30979236 523.84928111 940.31771881 497.23556712 940.33618164 470.62182617 C940.35691996 440.69325117 940.36762081 410.7646967 940.36360615 380.83611411 C940.36321083 377.64189414 940.36284928 374.44767418 940.36250877 371.25345421 C940.36241804 370.46700733 940.36232731 369.68056044 940.36223383 368.87028184 C940.36107018 357.02278901 940.36769843 345.17531699 940.37832069 333.32782936 C940.39039685 319.84533479 940.39190395 306.3628859 940.37953053 292.88039062 C940.37350331 286.00618085 940.37212496 279.13205231 940.38453293 272.25784874 C940.3954175 265.9554325 940.39225765 259.65317959 940.37827124 253.35077091 C940.3756314 251.08034154 940.37796822 248.80989925 940.38600711 246.53948257 C940.44156095 229.66788977 939.4626477 213.13885624 934.3125 196.9375 C933.93013184 195.70809692 933.93013184 195.70809692 933.54003906 194.45385742 C920.55515186 154.10684977 892.44849131 120.75214671 855 101 C836.57902331 91.60489162 817.48967492 86.36896482 797 84 C796.38033234 83.91983988 795.76066469 83.83967976 795.12221923 83.75709055 C789.51070404 83.06820504 784.00588586 82.8577573 778.35608864 82.87136555 C776.95614195 82.86873599 776.95614195 82.86873599 775.52791351 82.86605331 C772.4070726 82.86140913 769.28627861 82.86385475 766.16543579 82.86628723 C763.90256887 82.86441845 761.63970227 82.86211748 759.37683618 82.85942191 C753.16298273 82.85330556 746.94914273 82.85343732 740.73528695 82.85461628 C734.72021988 82.85479938 728.70515739 82.8503079 722.6900923 82.8460034 C708.86764332 82.83633803 695.04519805 82.83351943 681.22274609 82.83294634 C670.54377441 82.83248648 659.86480418 82.83042649 649.18583298 82.82724571 C646.10982684 82.82634813 643.03382071 82.82545832 639.95781457 82.82457083 C639.19305736 82.82434979 638.42830015 82.82412874 637.64036848 82.82390099 C616.13090021 82.81774739 594.62143245 82.81380035 573.11196327 82.81424427 C572.30116342 82.81425985 571.49036358 82.81427543 570.65499404 82.81429148 C566.54572066 82.81437458 562.43644728 82.81447362 558.3271739 82.81457619 C557.10304939 82.8146061 557.10304939 82.8146061 555.85419509 82.81463663 C554.20387462 82.81467706 552.55355415 82.81471886 550.90323368 82.81476202 C525.24358891 82.81537438 499.58395738 82.80787524 473.92431641 82.79418945 C445.0794674 82.77881106 416.23462709 82.77022433 387.38977373 82.77115268 C384.31062404 82.7712273 381.23147436 82.77127601 378.15232468 82.77130699 C377.39419145 82.77131865 376.63605823 82.7713303 375.85495127 82.77134231 C363.68116879 82.77137302 351.50739783 82.76500071 339.33361877 82.75637473 C327.08491477 82.74787556 314.83622754 82.74692592 302.58752222 82.75348405 C295.95842222 82.75684248 289.32935484 82.75682687 282.70025635 82.7481308 C276.62157338 82.74023908 270.54296472 82.74172445 264.46428351 82.75041493 C262.27513039 82.75194407 260.08597164 82.75015606 257.89682515 82.74455485 C241.03542589 82.70429966 224.28501008 83.29460946 207.8125 87.25 Z " fill="#FEFEFE" transform="translate(0,0)"/>
<path d="M0 0 C1.01578125 0.57878906 2.0315625 1.15757812 3.078125 1.75390625 C24.95788678 14.92454497 40.3678285 36.93979798 46.90722656 61.46801758 C52.84658934 86.32747754 48.09188707 111.73238586 35.25 133.625 C34.67765625 134.54539062 34.1053125 135.46578125 33.515625 136.4140625 C32.06536947 138.88846755 30.98950111 141.31282543 30 144 C30.65484375 144.66902344 31.3096875 145.33804688 31.984375 146.02734375 C54.39442945 169.41373539 69.9793428 199.06020984 79 230 C79.23557617 230.80727539 79.47115234 231.61455078 79.71386719 232.44628906 C84.66508924 249.84266555 87.647273 267.81123333 88.57910156 285.86743164 C89.1706414 297.14302597 90.97871989 306.88546235 94.99316406 317.47119141 C100.37271933 331.66173686 101.55323895 345.18791231 101.4375 360.1875 C101.43379395 361.04850311 101.43008789 361.90950623 101.42626953 362.79660034 C101.34800909 375.56505755 100.88227525 387.74086909 97 400 C96.5973291 401.30928467 96.5973291 401.30928467 96.18652344 402.64501953 C90.09746771 421.95400191 81.13297679 438.62130892 68 454 C67.23816406 454.91394531 66.47632813 455.82789063 65.69140625 456.76953125 C60.36729839 462.94777406 54.44017425 468.01779623 48 473 C47.35675781 473.52078125 46.71351563 474.0415625 46.05078125 474.578125 C34.26296045 483.88564511 20.82556801 490.35226736 7 496 C6.02160156 496.41121094 5.04320312 496.82242187 4.03515625 497.24609375 C-21.20932725 506.77301337 -50.11156135 506.11555142 -76.05859375 500.31640625 C-79.62049812 499.93325319 -82.33850719 500.52502196 -85.8125 501.375 C-94.28095991 503.42274059 -102.5307239 504.15554021 -111.22265625 504.23828125 C-112.07748596 504.2480751 -112.93231567 504.25786896 -113.81304932 504.26795959 C-132.18250692 504.43515708 -150.0612518 504.4746091 -168 500 C-168.91458984 499.77505859 -169.82917969 499.55011719 -170.77148438 499.31835938 C-195.98934314 492.94808608 -219.67353243 482.37820344 -240 466 C-240.53995605 465.57283691 -241.07991211 465.14567383 -241.63623047 464.70556641 C-255.70577676 453.52076785 -268.6953432 440.75549448 -279 426 C-279.46857422 425.33806641 -279.93714844 424.67613281 -280.41992188 423.99414062 C-304.88561797 389.22040092 -317.96723505 349.02944949 -323 307 C-323.09788818 306.19506104 -323.19577637 305.39012207 -323.29663086 304.56079102 C-324.19433145 296.15303941 -324.11247562 287.75460777 -324.0625 279.3125 C-324.05747144 277.82096506 -324.05291095 276.32942846 -324.04882812 274.83789062 C-324.03793804 271.22522538 -324.02074936 267.61262368 -324 264 C-325.11375 264.03480469 -326.2275 264.06960938 -327.375 264.10546875 C-354.01214056 264.68466485 -376.43107561 256.88906297 -396 238.4375 C-405.0657552 229.1320592 -411.07954906 218.36331184 -415 206 C-415.30679687 205.06027344 -415.61359375 204.12054687 -415.9296875 203.15234375 C-417.56159984 197.50281863 -418.26412203 191.9443597 -418.55859375 186.0859375 C-418.59889206 185.31384445 -418.63919037 184.5417514 -418.68070984 183.7462616 C-419.13381167 174.29302896 -419.25786537 164.83623546 -419.29516602 155.37329102 C-419.30683393 153.31300063 -419.32751024 151.25274374 -419.35668945 149.19262695 C-419.39929152 146.16597651 -419.41550388 143.14019374 -419.42578125 140.11328125 C-419.44328934 139.19968338 -419.46079742 138.28608551 -419.47883606 137.34480286 C-419.45858606 131.3760034 -418.60783648 127.82239384 -415 123 C-409.8041038 118.87187656 -404.41523932 119.52063054 -398.0625 119.5625 C-396.99064453 119.54251953 -395.91878906 119.52253906 -394.81445312 119.50195312 C-388.72958016 119.50572085 -384.69502737 119.71192524 -380 124 C-377.0565342 127.22512715 -376.62693819 129.33273421 -376.63110352 133.66381836 C-376.62422012 134.80278061 -376.61733673 135.94174286 -376.61024475 137.11521912 C-376.61640305 138.34434525 -376.62256134 139.57347137 -376.62890625 140.83984375 C-376.61150924 143.45638142 -376.59392503 146.07291785 -376.57617188 148.68945312 C-376.56314848 152.80346877 -376.56248671 156.91746246 -376.56420898 161.03149414 C-376.56425058 163.71480544 -376.55348986 166.39772 -376.53245544 169.08094788 C-376.51394866 171.59865157 -376.51168871 174.11654785 -376.52870178 176.63426208 C-376.4169774 189.62999984 -373.25510013 201.4288063 -364.1171875 210.96484375 C-356.64398515 217.8958726 -347.81623804 222.23192956 -337.51074219 222.2746582 C-335.60781403 222.28895622 -335.60781403 222.28895622 -333.66644287 222.30354309 C-332.2932533 222.30328155 -330.92006371 222.30234396 -329.546875 222.30078125 C-328.1220894 222.30467432 -326.69730495 222.30901024 -325.27252197 222.31376648 C-322.29020422 222.32121103 -319.30800487 222.32095129 -316.32568359 222.31567383 C-312.52869313 222.30989609 -308.73219317 222.32677722 -304.93528366 222.3500185 C-301.99248482 222.36485084 -299.04980135 222.36561449 -296.10697174 222.36250877 C-294.70851931 222.36301771 -293.31005969 222.36817399 -291.91164398 222.37832069 C-278.40849927 222.46424776 -266.96595335 220.29296764 -256.734375 210.92578125 C-249.6682719 203.42786074 -245.89221082 195.37048584 -245.8581543 185.05737305 C-245.85111984 183.85900314 -245.84408539 182.66063324 -245.83683777 181.4259491 C-245.83059135 179.48840508 -245.83059135 179.48840508 -245.82421875 177.51171875 C-245.81378689 176.1665621 -245.80236305 174.82141281 -245.78999329 173.47627258 C-245.73769843 167.77433575 -245.68958047 162.0725328 -245.67407227 156.37036133 C-245.66395108 152.87712071 -245.63452592 149.38448849 -245.59275246 145.89148903 C-245.5745699 143.92470231 -245.57708215 141.9577591 -245.58000183 139.9908905 C-245.48701475 133.18034647 -245.35676106 128.39584274 -241 123 C-235.71326632 118.77568763 -230.03243064 119.52166854 -223.5625 119.5625 C-221.88317383 119.5325293 -221.88317383 119.5325293 -220.16992188 119.50195312 C-214.01796732 119.50560414 -209.67783535 119.55035174 -205 124 C-202.23923842 127.83308473 -201.61949049 130.49317513 -201.59594727 135.1887207 C-201.57692101 137.03268181 -201.57692101 137.03268181 -201.55751038 138.91389465 C-201.55956434 140.2511919 -201.56255445 141.58848798 -201.56640625 142.92578125 C-201.56183677 144.31520338 -201.55652894 145.70462326 -201.55052185 147.09403992 C-201.54159217 150.01013337 -201.54400478 152.92595311 -201.55395508 155.84204102 C-201.56308543 158.80294229 -201.5563752 161.76305114 -201.53344727 164.72387695 C-201.28857754 196.49609041 -201.28857754 196.49609041 -206 209 C-206.31332275 209.83539307 -206.62664551 210.67078613 -206.94946289 211.53149414 C-207.79149322 213.54834542 -208.71543353 215.45118463 -209.75 217.375 C-210.09361572 218.03508057 -210.43723145 218.69516113 -210.79125977 219.37524414 C-213.88836166 225.14131291 -217.56147433 230.18247308 -222 235 C-223.06541016 236.16789062 -223.06541016 236.16789062 -224.15234375 237.359375 C-239.61084512 253.55140807 -261.09203224 263.33400829 -283.4375 264.08154297 C-288.62705177 264.16262972 -293.81123761 264.10698479 -299 264 C-295.67651993 326.48381206 -283.40791247 384.29745376 -239 431 C-238.35804688 431.70640625 -237.71609375 432.4128125 -237.0546875 433.140625 C-210.29356941 461.63947803 -167.24171025 476.6497429 -128.94140625 478.1171875 C-126.96056195 478.12336798 -124.97954559 478.07198348 -123 478 C-123.81082031 477.39414062 -124.62164063 476.78828125 -125.45703125 476.1640625 C-158.61966533 451.171129 -178.04367644 417.97415947 -184.62109375 377.14453125 C-187.99103101 346.650988 -181.83945732 317.68608291 -167 291 C-166.65743164 290.36900391 -166.31486328 289.73800781 -165.96191406 289.08789062 C-160.44081904 278.99246804 -153.79596381 270.43683373 -146 262 C-145.13761719 261.04351563 -144.27523438 260.08703125 -143.38671875 259.1015625 C-122.54878644 237.03042934 -92.75365032 223.47019987 -63 219 C-62.13375 218.86980469 -61.2675 218.73960937 -60.375 218.60546875 C-21.9390104 214.10125122 16.3126575 224.229341 46.94140625 247.94042969 C48.63738383 249.28201022 50.32107358 250.63717418 52 252 C52.969375 252.77472656 53.93875 253.54945313 54.9375 254.34765625 C55.618125 254.89292969 56.29875 255.43820312 57 256 C53.78643243 226.31591195 39.0266685 196.7092495 20 174 C19.18015625 173.00484375 18.3603125 172.0096875 17.515625 170.984375 C14.43258791 167.31825042 14.43258791 167.31825042 11 164 C6.28452905 164 5.0862401 165.02531445 1.25 167.625 C-6.08533228 172.36049432 -13.70171801 175.37174886 -22 178 C-23.03769531 178.34160156 -24.07539062 178.68320312 -25.14453125 179.03515625 C-49.01924039 185.4918386 -75.38444534 181.41931957 -97 170 C-105.19746789 165.26883479 -112.17178615 159.5178405 -119 153 C-119.61359375 152.46117187 -120.2271875 151.92234375 -120.859375 151.3671875 C-138.00602751 135.71496801 -146.1203853 109.99479337 -147.2578125 87.5234375 C-148.09344145 62.33482168 -139.56536644 38.14294308 -122.4375 19.5 C-120.65657596 17.62979807 -118.83919765 15.81471129 -117 14 C-116.27296875 13.27425781 -115.5459375 12.54851562 -114.796875 11.80078125 C-83.94924663 -17.27596475 -36.09289704 -21.0473151 0 0 Z " fill="#DC3048" transform="translate(689,388)"/>
<path d="M0 0 C2.17422419 0.0160783 4.3465836 0.00005231 6.52075195 -0.01904297 C37.08100892 -0.06499013 65.07952048 12.67696074 86.92895508 33.70361328 C108.35128279 55.8441823 108.35128279 55.8441823 108.74145508 67.76611328 C108.61941511 69.3119529 108.44918123 70.85444034 108.24145508 72.39111328 C108.14477539 73.28572266 108.0480957 74.18033203 107.94848633 75.10205078 C103.92207102 106.11740827 92.49568765 135.67198302 73.24145508 160.39111328 C72.5840332 161.27025391 71.92661133 162.14939453 71.24926758 163.05517578 C50.32173979 190.00852869 22.69036973 208.75885814 -8.75854492 221.39111328 C-9.60400879 221.74141602 -10.44947266 222.09171875 -11.32055664 222.45263672 C-13.95362747 223.53145426 -16.60115517 224.56134871 -19.25854492 225.57861328 C-20.0591333 225.90708252 -20.85972168 226.23555176 -21.68457031 226.57397461 C-29.61455964 229.46993733 -35.34405413 226.98708515 -42.74291992 223.66455078 C-44.00368485 223.04288253 -45.25887734 222.40979842 -46.50854492 221.76611328 C-47.18755859 221.41911377 -47.86657227 221.07211426 -48.56616211 220.71459961 C-60.74726089 214.37039542 -70.93944273 206.9750274 -80.75854492 197.39111328 C-81.41338867 196.79814453 -82.06823242 196.20517578 -82.74291992 195.59423828 C-102.28730397 177.48430444 -112.97482736 146.91409946 -114.03979492 120.80908203 C-114.80055679 89.1361174 -105.11024096 60.08059269 -83.30932617 36.62548828 C-61.3526751 13.65439522 -32.02403745 -0.28043953 0 0 Z " fill="#FE9249" transform="translate(644.758544921875,632.60888671875)"/>
<path d="M0 0 C15.9128716 11.80035357 27.32281902 29.00556325 30.27197266 48.79980469 C32.24172792 68.26487545 28.05546481 87.03269436 16.06884766 102.67480469 C13.89506198 105.16781764 11.64676043 107.49846396 9.27197266 109.79980469 C8.56298828 110.50621094 7.85400391 111.21261719 7.12353516 111.94042969 C-6.99584683 125.2952242 -25.30831176 131.2909817 -44.53662109 131.06542969 C-63.89124188 130.14097578 -81.24100735 121.24282114 -94.42089844 107.24902344 C-108.74932281 91.36304528 -112.94185763 72.24592159 -111.93505859 51.46630859 C-110.43177852 32.10448674 -100.04576184 15.46337048 -85.53662109 2.96386719 C-60.49229406 -16.33315253 -26.42170079 -18.35109933 0 0 Z " fill="#FBFAFB" transform="translate(680.72802734375,413.2001953125)"/>
<path d="M0 0 C1.07185547 -0.01998047 2.14371094 -0.03996094 3.24804688 -0.06054688 C9.33291984 -0.05677915 13.36747263 0.14942524 18.0625 4.4375 C21.0059658 7.66262715 21.43556181 9.77023421 21.43139648 14.10131836 C21.43827988 15.24028061 21.44516327 16.37924286 21.45225525 17.55271912 C21.44609695 18.78184525 21.43993866 20.01097137 21.43359375 21.27734375 C21.45099076 23.89388142 21.46857497 26.51041785 21.48632812 29.12695312 C21.49935152 33.24096877 21.50001329 37.35496246 21.49829102 41.46899414 C21.49824942 44.15230544 21.50901014 46.83522 21.53004456 49.51844788 C21.54855134 52.03615157 21.55081129 54.55404785 21.53379822 57.07176208 C21.6455226 70.06749984 24.80739987 81.8663063 33.9453125 91.40234375 C41.41851485 98.3333726 50.24626196 102.66942956 60.55175781 102.7121582 C61.82037659 102.72169022 63.08899536 102.73122223 64.39605713 102.74104309 C65.7692467 102.74078155 67.14243629 102.73984396 68.515625 102.73828125 C69.9404106 102.74217432 71.36519505 102.74651024 72.78997803 102.75126648 C75.77229578 102.75871103 78.75449513 102.75845129 81.73681641 102.75317383 C85.53380687 102.74739609 89.33030683 102.76427722 93.12721634 102.7875185 C96.07001518 102.80235084 99.01269865 102.80311449 101.95552826 102.80000877 C103.35398069 102.80051771 104.75244031 102.80567399 106.15085602 102.81582069 C119.65400073 102.90174776 131.09654665 100.73046764 141.328125 91.36328125 C148.3942281 83.86536074 152.17028918 75.80798584 152.2043457 65.49487305 C152.21138016 64.29650314 152.21841461 63.09813324 152.22566223 61.8634491 C152.23190865 59.92590508 152.23190865 59.92590508 152.23828125 57.94921875 C152.24871311 56.6040621 152.26013695 55.25891281 152.27250671 53.91377258 C152.32480157 48.21183575 152.37291953 42.5100328 152.38842773 36.80786133 C152.39854892 33.31462071 152.42797408 29.82198849 152.46974754 26.32898903 C152.4879301 24.36220231 152.48541785 22.3952591 152.48249817 20.4283905 C152.57548525 13.61784647 152.70573894 8.83334274 157.0625 3.4375 C162.34923368 -0.78681237 168.03006936 -0.04083146 174.5 0 C175.61955078 -0.01998047 176.73910156 -0.03996094 177.89257812 -0.06054688 C184.04453268 -0.05689586 188.38466465 -0.01214826 193.0625 4.4375 C195.82326158 8.27058473 196.44300951 10.93067513 196.46655273 15.6262207 C196.48557899 17.47018181 196.48557899 17.47018181 196.50498962 19.35139465 C196.50293566 20.6886919 196.49994555 22.02598798 196.49609375 23.36328125 C196.50066323 24.75270338 196.50597106 26.14212326 196.51197815 27.53153992 C196.52090783 30.44763337 196.51849522 33.36345311 196.50854492 36.27954102 C196.49941457 39.24044229 196.5061248 42.20055114 196.52905273 45.16137695 C196.77392246 76.93359041 196.77392246 76.93359041 192.0625 89.4375 C191.74917725 90.27289307 191.43585449 91.10828613 191.11303711 91.96899414 C190.27100678 93.98584542 189.34706647 95.88868463 188.3125 97.8125 C187.96888428 98.47258057 187.62526855 99.13266113 187.27124023 99.81274414 C184.17413834 105.57881291 180.50102567 110.61997308 176.0625 115.4375 C174.99708984 116.60539063 174.99708984 116.60539063 173.91015625 117.796875 C157.83209297 134.63786923 136.46736678 143.38110301 113.48098755 144.63247681 C109.92474196 144.71420763 106.37357762 144.74096797 102.81640625 144.73828125 C101.5216185 144.74256638 100.22683075 144.7468515 98.89280701 144.75126648 C96.17776335 144.7586416 93.46284993 144.75850134 90.74780273 144.75317383 C88.00089175 144.7485346 85.25442262 144.75550189 82.50756836 144.77368164 C51.08498663 144.97974233 25.74283015 141.20321253 2.0625 118.875 C-7.0032552 109.5695592 -13.01704906 98.80081184 -16.9375 86.4375 C-17.24429687 85.49777344 -17.55109375 84.55804687 -17.8671875 83.58984375 C-19.49909984 77.94031863 -20.20162203 72.3818597 -20.49609375 66.5234375 C-20.53639206 65.75134445 -20.57669037 64.9792514 -20.61820984 64.1837616 C-21.07131167 54.73052896 -21.19536537 45.27373546 -21.23266602 35.81079102 C-21.24433393 33.75050063 -21.26501024 31.69024374 -21.29418945 29.63012695 C-21.33679152 26.60347651 -21.35300388 23.57769374 -21.36328125 20.55078125 C-21.38078934 19.63718338 -21.39829742 18.72358551 -21.41633606 17.78230286 C-21.39608606 11.8135034 -20.54533648 8.25989384 -16.9375 3.4375 C-11.7416038 -0.69062344 -6.35273932 -0.04186946 0 0 Z " fill="#EF434D" transform="translate(290.9375,507.5625)"/>
<path d="M0 0 C1.01578125 0.57878906 2.0315625 1.15757812 3.078125 1.75390625 C24.95788678 14.92454497 40.3678285 36.93979798 46.90722656 61.46801758 C52.84608899 86.3253833 47.99213872 111.40390434 35.5 133.4375 C34.35325948 135.304056 33.18849544 137.159749 32 139 C31.56429687 139.680625 31.12859375 140.36125 30.6796875 141.0625 C15.26424263 163.21643275 -7.63403863 174.65514963 -33.32885742 180.53271484 C-58.90539843 185.00703159 -85.15351311 178.90723707 -106.25390625 164.10546875 C-110.75310585 160.65586905 -114.90180512 156.91191329 -119 153 C-119.61359375 152.46117187 -120.2271875 151.92234375 -120.859375 151.3671875 C-138.00602751 135.71496801 -146.1203853 109.99479337 -147.2578125 87.5234375 C-148.09344145 62.33482168 -139.56536644 38.14294308 -122.4375 19.5 C-120.65657596 17.62979807 -118.83919765 15.81471129 -117 14 C-116.27296875 13.27425781 -115.5459375 12.54851562 -114.796875 11.80078125 C-83.94924663 -17.27596475 -36.09289704 -21.0473151 0 0 Z M-105.08984375 39.4296875 C-118.14460921 56.99622261 -122.30916636 76.65179372 -119.73193359 98.24609375 C-116.62524742 116.27981375 -105.89445068 131.45050157 -91.5625 142.375 C-75.42395359 153.34648007 -57.28816021 158.64126407 -37.77734375 155.33984375 C-24.30506088 152.70825378 -12.29389074 147.22512613 -2 138 C-1.17886719 137.28328125 -0.35773438 136.5665625 0.48828125 135.828125 C10.16026718 126.84594687 16.31384401 115.64933528 20 103 C20.33644531 101.89398438 20.33644531 101.89398438 20.6796875 100.765625 C25.28272133 82.47960021 21.58392263 62.76422133 12.09082031 46.70849609 C1.34911916 29.88431868 -15.3969729 18.39481057 -34.75390625 13.69921875 C-61.75652984 8.66963396 -87.38255782 18.55908765 -105.08984375 39.4296875 Z " fill="#F0414C" transform="translate(689,388)"/>
<path d="M0 0 C-0.16113281 0.5053125 -0.32226562 1.010625 -0.48828125 1.53125 C-1.18184184 4.87728277 -1.17069294 8.08480559 -1.1875 11.5 C-1.20167969 12.8096875 -1.21585937 14.119375 -1.23046875 15.46875 C-1.01581173 18.75773206 -0.59095722 20.23311788 1 23 C1 23.99 1 24.98 1 26 C0.0821875 26.09796875 -0.835625 26.1959375 -1.78125 26.296875 C-10.72998982 27.38726767 -17.88167375 28.42564689 -24.25 35.125 C-32.13489661 45.67555785 -31.60330868 56.56703603 -31.4375 69.1875 C-31.4310144 70.12652161 -31.42452881 71.06554321 -31.41784668 72.03302002 C-31.31680828 86.20834396 -30.64193298 100.04467328 -28 114 C-27.77521973 115.25997803 -27.77521973 115.25997803 -27.54589844 116.54541016 C-26.49802262 122.39549394 -25.28712904 128.19840264 -24 134 C-23.84370117 134.73557129 -23.68740234 135.47114258 -23.52636719 136.22900391 C-17.02261382 166.519259 -5.2082823 196.16253076 6.3359375 224.81640625 C10.40854395 234.95233679 14.19330736 245.15531659 17.60324097 255.53302002 C18.2169751 257.39956179 18.83979944 259.26310743 19.46313477 261.12646484 C26.02285293 281.48702485 28.73609136 300.54533719 28.3125 321.9375 C28.28732509 324.19333398 28.26452854 326.4491958 28.24414062 328.70507812 C28.19433379 334.13800818 28.09636921 339.5669181 28 345 C19.42 345.33 10.84 345.66 2 346 C1.98582031 342.9578125 1.97164063 339.915625 1.95703125 336.78125 C2.01300785 306.00439418 2.01300785 306.00439418 -4 276 C-4.56170898 274.19813232 -4.56170898 274.19813232 -5.13476562 272.35986328 C-9.95519323 257.10326249 -15.58930343 242.20862136 -21.72631836 227.43432617 C-42.86165532 176.41993079 -58.86400814 123.23799017 -59.3125 67.625 C-59.33022461 66.30628906 -59.34794922 64.98757812 -59.36621094 63.62890625 C-59.35220402 44.97169184 -55.21175011 27.99916679 -42.5 13.875 C-31.06810909 3.04819972 -15.32438073 -0.33965381 0 0 Z " fill="#FCFCFB" transform="translate(276,163)"/>
<path d="M0 0 C16.72134445 0.46255448 31.31914558 4.03857695 43.86328125 15.70703125 C57.64368 30.49513741 59.417662 49.42099942 59.3125 68.75 C59.30926727 69.82831085 59.30926727 69.82831085 59.30596924 70.92840576 C59.24145914 84.45278091 58.21847228 97.64495761 56 111 C55.80664062 112.17143555 55.61328125 113.34287109 55.4140625 114.54980469 C48.81258785 153.39459299 36.67344076 190.15660147 21.9375 226.625 C15.3529278 242.92132069 8.95643449 259.11998451 4 276 C3.72881348 276.85706543 3.45762695 277.71413086 3.17822266 278.59716797 C-3.42809025 299.8732 -1.89770485 322.96934359 -2 345 C-10.58 345 -19.16 345 -28 345 C-28.78772095 293.16358518 -28.78772095 293.16358518 -24 276 C-23.55672363 274.38327393 -23.55672363 274.38327393 -23.10449219 272.73388672 C-17.20407118 251.70305872 -9.36905943 231.36692476 -1.2421875 211.11328125 C10.71336009 181.25524197 20.46718237 151.27083012 26.75 119.6875 C27.04849854 118.20455444 27.04849854 118.20455444 27.35302734 116.69165039 C30.29439164 101.21855934 31.37358297 85.70132371 31.37060547 69.97119141 C31.37505781 67.34084859 31.41180615 64.71208862 31.44921875 62.08203125 C31.64477139 49.97639209 31.64477139 49.97639209 27 39 C26.51660156 38.17886719 26.03320312 37.35773438 25.53515625 36.51171875 C19.61057347 29.17277934 11.2270719 27.45634856 2.1875 26.25 C1.135625 26.1675 0.08375 26.085 -1 26 C-0.67 24.96875 -0.34 23.9375 0 22.875 C1.79353394 15.77718483 2.18033896 7.04685553 0 0 Z " fill="#FCFBFB" transform="translate(481,163)"/>
<path d="M0 0 C9.85029104 7.21802839 17.6283974 17.05029778 20.16796875 29.2109375 C21.95460399 43.05736059 18.95288102 55.45187058 10.76953125 66.69921875 C4.23484422 74.73878184 -4.41831373 80.1413013 -14.55078125 82.390625 C-28.82214213 83.82179888 -40.61892356 82.64671074 -52.42578125 74.015625 C-61.16385923 66.68131767 -68.19466872 57.03833124 -69.55078125 45.390625 C-70.51780687 31.42082413 -68.2948122 20.64599643 -59.55078125 9.390625 C-44.21747388 -7.96022282 -19.90883942 -12.56116668 0 0 Z " fill="#2E3761" transform="translate(664.55078125,434.609375)"/>
<path d="M0 0 C0.79520554 -0.00428513 1.59041107 -0.00857025 2.40971375 -0.01298523 C4.08815563 -0.01871272 5.76662233 -0.01924047 7.44506836 -0.01489258 C9.99311465 -0.01174176 12.53998843 -0.03517868 15.08789062 -0.06054688 C16.72525897 -0.06282118 18.3626304 -0.06352276 20 -0.0625 C20.75235428 -0.07170975 21.50470856 -0.08091949 22.27986145 -0.09040833 C28.56959227 -0.03629775 33.96815555 1.27777147 39.125 5.09765625 C45.44230359 11.637308 47.81439731 16.07264248 48.13671875 25.17578125 C47.94316504 32.47662721 46.82515413 37.76681449 41.93359375 43.296875 C35.43339441 49.4515913 28.49038422 51.76695088 19.61328125 51.76953125 C18.87145599 51.77714478 18.12963074 51.7847583 17.36532593 51.79260254 C15.80738665 51.80333015 14.24937588 51.80628679 12.69140625 51.80175781 C10.33599245 51.80078611 7.98385084 51.84247136 5.62890625 51.88671875 C-3.82683966 51.9621637 -11.99324557 51.30319178 -19.19482422 44.515625 C-25.55568728 37.70602026 -26.92299732 31.23987194 -26.70703125 22.0703125 C-26.01863846 15.68282169 -24.00727575 10.91451283 -19.36328125 6.4296875 C-13.17522408 1.54252871 -7.88160081 -0.00947138 0 0 Z " fill="#2E3764" transform="translate(300.30078125,148.69921875)"/>
<path d="M0 0 C0.79803543 -0.00807175 1.59607086 -0.01614349 2.41828918 -0.02445984 C4.10867145 -0.03828627 5.79908146 -0.04901487 7.48950195 -0.05688477 C9.20898686 -0.06838146 10.92843673 -0.08879667 12.64770508 -0.1184082 C15.14038187 -0.16133164 17.6319983 -0.17728938 20.125 -0.1875 C20.88362839 -0.20500809 21.64225677 -0.22251617 22.4238739 -0.24055481 C29.17647289 -0.21351071 34.30501892 1.94060285 39.35546875 6.421875 C40.30292969 7.53755859 40.30292969 7.53755859 41.26953125 8.67578125 C42.24019531 9.78759766 42.24019531 9.78759766 43.23046875 10.921875 C47.95181098 17.49407205 47.45501559 24.42766078 46.89453125 32.23828125 C45.62136893 38.7198349 40.63902466 44.70302284 35.25854492 48.34594727 C28.21732021 52.17134686 20.60523815 51.87896224 12.8112793 51.81469727 C10.46453975 51.80082563 8.12179539 51.83498379 5.77539062 51.87304688 C-4.15650117 51.92506286 -11.75285561 50.76741545 -19.54296875 44.17578125 C-20.05859375 43.53640625 -20.57421875 42.89703125 -21.10546875 42.23828125 C-21.90984375 41.27921875 -21.90984375 41.27921875 -22.73046875 40.30078125 C-27.26967333 33.49197439 -27.23436702 25.13658715 -26.10546875 17.23828125 C-23.50422258 9.49388675 -18.2307348 4.91627572 -11.10546875 1.23828125 C-7.38047612 -0.00338296 -3.88286198 0.03731051 0 0 Z " fill="#2D3664" transform="translate(436.10546875,148.76171875)"/>
<path d="M0 0 C1.1240625 -0.02449219 2.248125 -0.04898437 3.40625 -0.07421875 C9.58025907 -0.0961124 13.93170795 -0.1042657 18.625 4.375 C22.54937468 9.14614234 22.01071644 14.05329931 21.91796875 19.92578125 C21.91372391 20.93972458 21.90947906 21.95366791 21.90510559 22.99833679 C21.88834859 26.22833099 21.85070122 29.45769522 21.8125 32.6875 C21.79744934 34.88085035 21.7837616 37.0742105 21.77148438 39.26757812 C21.74101004 44.63715516 21.68228166 50.00537461 21.625 55.375 C7.765 55.375 -6.095 55.375 -20.375 55.375 C-20.46687378 48.62993299 -20.54650182 41.8870401 -20.59472656 35.1418457 C-20.61483106 32.84782552 -20.64211891 30.55385652 -20.67675781 28.26000977 C-20.72532559 24.96097174 -20.74798077 21.66261178 -20.765625 18.36328125 C-20.78627014 17.33914627 -20.80691528 16.31501129 -20.82818604 15.25984192 C-20.82956337 10.88052741 -20.82771102 8.15615698 -18.60058594 4.31323242 C-12.87518142 -0.67294424 -7.31902482 0.00833602 0 0 Z " fill="#2F3863" transform="translate(465.375,507.625)"/>
<path d="M0 0 C1.07185547 -0.01998047 2.14371094 -0.03996094 3.24804688 -0.06054688 C9.33291984 -0.05677915 13.36747263 0.14942524 18.0625 4.4375 C20.70651567 7.42209562 21.43514705 9.22926591 21.40307617 13.20605469 C21.40273628 14.61706451 21.40273628 14.61706451 21.40238953 16.05657959 C21.38690567 17.06400208 21.37142181 18.07142456 21.35546875 19.109375 C21.35122391 20.14692932 21.34697906 21.18448364 21.34260559 22.253479 C21.32582223 25.56508408 21.28816992 28.87607907 21.25 32.1875 C21.23495275 34.43358496 21.22126442 36.67967946 21.20898438 38.92578125 C21.17847257 44.43011124 21.11974891 49.93312329 21.0625 55.4375 C7.5325 55.4375 -5.9975 55.4375 -19.9375 55.4375 C-20.00640752 48.83513833 -20.06613173 42.23402668 -20.10229492 35.6315918 C-20.11737182 33.38610606 -20.13783653 31.14064971 -20.16381836 28.89526367 C-20.20024918 25.66577901 -20.21723755 22.43668406 -20.23046875 19.20703125 C-20.24595261 18.20477005 -20.26143646 17.20250885 -20.27738953 16.1698761 C-20.27955287 7.18974904 -20.27955287 7.18974904 -16.9375 3.4375 C-11.62893605 -0.60936002 -6.41226757 -0.0422618 0 0 Z " fill="#2D3663" transform="translate(290.9375,507.5625)"/>
<path d="M0 0 C3.73844748 6.23074579 3.14418982 13.74050859 3.12584114 20.76488686 C3.12729458 21.73552716 3.12874802 22.70616746 3.13024551 23.7062211 C3.13390142 26.96599785 3.13042095 30.22572772 3.12698364 33.48550415 C3.12813562 35.84324333 3.12972366 38.20098233 3.13171089 40.55872095 C3.13545498 46.36346584 3.1345378 52.16819702 3.13166012 57.97294211 C3.12847199 64.92640307 3.13108503 71.87985878 3.13387203 78.83331947 C3.13913909 92.45665377 3.13868089 106.07998339 3.13579312 119.70331814 C3.13327863 131.62400392 3.13262037 143.54468799 3.13381577 155.46537399 C3.13389215 156.2557712 3.13396854 157.04616841 3.13404724 157.86051705 C3.13435857 161.06888856 3.13467697 164.27726006 3.135007 167.48563156 C3.13806652 197.5869177 3.13529159 227.68820085 3.1299101 257.78948653 C3.12516352 284.54292751 3.12558984 311.29636374 3.13037109 338.04980469 C3.13572333 368.09868136 3.13785047 398.14755539 3.13475883 428.19643247 C3.1344381 431.39837416 3.13412527 434.60031585 3.13381577 437.80225754 C3.13373669 438.59067384 3.13365761 439.37909015 3.13357614 440.19139786 C3.13243777 452.1070775 3.13377059 464.02275523 3.13629532 475.9384346 C3.13915084 489.48297053 3.13844769 503.02750103 3.13301457 516.57203628 C3.13033244 523.4869672 3.12923908 530.4018893 3.13266373 537.31682014 C3.13563197 543.64032112 3.13402497 549.96380339 3.12868617 556.28730266 C3.12756428 558.58124509 3.12814818 560.87518908 3.13056196 563.16913052 C3.13358076 566.27504163 3.13050591 569.38088777 3.12584114 572.48679543 C3.12818231 573.38774067 3.13052347 574.28868592 3.13293558 575.21693254 C3.12065797 579.27719115 3.02298204 583.03926657 2 587 C1.67 587 1.34 587 1 587 C-0.06793247 558.07925043 -0.13974981 529.17600335 -0.11606562 500.23845029 C-0.11213711 494.19862149 -0.11303101 488.15879435 -0.11374746 482.11896477 C-0.11504876 469.796229 -0.11176861 457.47349866 -0.10573006 445.15076447 C-0.09978044 432.97788719 -0.0959576 420.8050122 -0.09487724 408.63213348 C-0.0948085 407.87073104 -0.09473976 407.10932859 -0.09466894 406.32485334 C-0.09433053 402.4569111 -0.09402918 398.58896887 -0.09374207 394.72102663 C-0.09165055 367.4378769 -0.08493826 340.15473011 -0.07543945 312.87158203 C-0.06623142 286.39274104 -0.05915943 259.91390087 -0.05493164 233.43505859 C-0.05480011 232.61656873 -0.05466859 231.79807886 -0.05453308 230.95478627 C-0.05321438 222.73397923 -0.05193859 214.51317219 -0.05069422 206.29236513 C-0.04815909 189.55076535 -0.04533784 172.80916562 -0.04234314 156.06756592 C-0.04220585 155.29808396 -0.04206856 154.528602 -0.04192711 153.73580241 C-0.03275124 102.49053369 -0.01688802 51.24526669 0 0 Z " fill="#FE8A36" transform="translate(937,215)"/>
<path d="M0 0 C-11.38956341 6.60480721 -29.20235015 4.28171963 -41.85357666 4.25396729 C-44.15364962 4.25627474 -46.45372183 4.25945317 -48.75379252 4.26342177 C-55.04200413 4.27173851 -61.33015471 4.26765879 -67.61836648 4.26144934 C-73.71301026 4.25737988 -79.80763965 4.26272527 -85.90228149 4.26774407 C-99.12580846 4.27824902 -112.34931604 4.27737382 -125.57284483 4.27158624 C-137.13768425 4.26654954 -148.70251658 4.26524437 -160.26735687 4.26763153 C-161.41929086 4.26786069 -161.41929086 4.26786069 -162.59449625 4.26809447 C-165.71196854 4.26871716 -168.82944082 4.26935396 -171.94691311 4.270014 C-201.16074193 4.27612551 -230.37455842 4.27059404 -259.58838534 4.2598202 C-285.55095489 4.2503183 -311.51350483 4.25118853 -337.47607422 4.26074219 C-366.65555235 4.27144376 -395.83501961 4.27570342 -425.01449943 4.26951766 C-428.12247705 4.26887622 -431.23045468 4.26825054 -434.33843231 4.26763153 C-435.10368105 4.26747338 -435.8689298 4.26731522 -436.65736789 4.26715227 C-448.22409877 4.26487528 -459.79082179 4.26754146 -471.35755157 4.27259064 C-484.49718543 4.27829788 -497.6367969 4.27690306 -510.77642795 4.26602915 C-517.48460058 4.26066121 -524.19273082 4.25874232 -530.9009037 4.26532745 C-537.03279173 4.27125616 -543.16460253 4.26806315 -549.29648349 4.25737235 C-551.52285632 4.25512531 -553.74923558 4.2563035 -555.97560433 4.26112393 C-558.98553614 4.26714462 -561.99519815 4.26102986 -565.00511551 4.25168228 C-566.32247996 4.25870578 -566.32247996 4.25870578 -567.66645783 4.26587117 C-573.65754831 4.22830113 -573.65754831 4.22830113 -577 2 C-575.81847447 1.99826375 -574.63694895 1.9965275 -573.41961962 1.99473864 C-521.35143283 1.91815984 -469.28324799 1.8403609 -417.21507263 1.7563324 C-416.42686212 1.75506072 -415.63865161 1.75378904 -414.82655593 1.75247882 C-397.6968758 1.72483487 -380.56719602 1.69697182 -363.4375166 1.66888306 C-355.03720189 1.65510979 -346.6368871 1.64138495 -338.23657227 1.62768555 C-336.98266965 1.62563942 -336.98266965 1.62563942 -335.70343567 1.62355196 C-308.60533412 1.57935582 -281.50722888 1.53835729 -254.40911988 1.49901587 C-226.5637467 1.45857269 -198.71838039 1.41490575 -170.87301869 1.36717889 C-166.94061885 1.36044027 -163.00821895 1.35373853 -159.07581902 1.34705925 C-158.30186155 1.34574352 -157.52790409 1.34442779 -156.73049337 1.3430722 C-144.26879071 1.32198216 -131.80708543 1.3042934 -119.34537583 1.28787469 C-106.81905318 1.27129833 -94.29274034 1.25114316 -81.76642931 1.22733159 C-74.97864662 1.21452778 -68.19087161 1.20344045 -61.40307999 1.19658089 C-55.19072641 1.19026778 -48.97839788 1.17942871 -42.76605808 1.1649667 C-40.51692499 1.16053391 -38.26778786 1.15777219 -36.0186506 1.15683801 C-32.96345749 1.15532607 -29.90833663 1.14774954 -26.853158 1.1386652 C-25.97836767 1.13968787 -25.10357735 1.14071054 -24.20227823 1.14176419 C-16.13520536 1.10568309 -7.61810434 -1.49049867 0 0 Z " fill="#FE9144" transform="translate(808,937)"/>
<path d="M0 0 C5.20102517 2.50763713 8.0291679 6.14229346 11.25 10.8125 C12.98785501 15.88124377 12.54635147 20.40147947 10.375 25.1875 C7.90894279 29.66163236 4.59988363 32.70005818 0 35 C-5.55531248 35.5072965 -10.41830236 35.76260422 -15.5 33.3125 C-19.55336043 29.5631416 -23.44101321 25.51641688 -24.3359375 19.88671875 C-24.43563526 14.27373493 -23.5882486 10.39779249 -20 6 C-13.72004375 -0.18383447 -8.63174948 -0.8134633 0 0 Z " fill="#87969F" transform="translate(646,455)"/>
<path d="M0 0 C0.33 0 0.66 0 1 0 C0.31500157 25.90539518 -15.95882319 49.93779545 -34.0078125 67.34765625 C-45.39981819 77.44579184 -59.32736927 87.37890456 -74 92 C-74.99 91.67 -75.98 91.34 -77 91 C-76.29617188 90.55011719 -75.59234375 90.10023438 -74.8671875 89.63671875 C-64.39525976 82.8149277 -53.99086405 75.52042109 -45.37109375 66.40625 C-44 65 -44 65 -41.5 63.0625 C-37.87402869 60.07107367 -34.99107222 56.61632461 -32 53 C-31.16082031 51.98679687 -30.32164062 50.97359375 -29.45703125 49.9296875 C-16.94271463 34.56103212 -8.23938777 17.98200291 0 0 Z " fill="#FD8A47" transform="translate(762,767)"/>
<path d="M0 0 C0.33 0 0.66 0 1 0 C2.31207588 12.2752811 2.14108585 24.55823704 2.12939453 36.88671875 C2.1307513 39.29428636 2.13253278 41.70185376 2.13470459 44.10942078 C2.13877413 49.94137023 2.13820234 55.77330519 2.13529195 61.60525507 C2.1330254 66.34460553 2.13273079 71.08395238 2.13381577 75.82330322 C2.13404561 76.838441 2.13404561 76.838441 2.13428011 77.87408662 C2.13459985 79.24918302 2.13492407 80.62427942 2.1352527 81.99937582 C2.13809647 94.8580536 2.13483691 107.71672422 2.12945233 120.57540083 C2.12497716 131.60414448 2.12576822 142.63287762 2.13037109 153.66162109 C2.13572237 166.48948178 2.13783041 179.31733622 2.13475883 192.14519787 C2.13444029 193.51253954 2.13412592 194.87988122 2.13381577 196.2472229 C2.13366149 196.91989152 2.13350721 197.59256013 2.13334826 198.28561264 C2.13248538 203.02230896 2.13394091 207.75900132 2.13629532 212.49569702 C2.13917933 218.86511267 2.13718853 225.2345084 2.13140106 231.60392189 C2.13007677 233.94326558 2.13046199 236.28261094 2.13266373 238.62195396 C2.13538789 241.8096783 2.13197858 244.99733837 2.12698364 248.18505859 C2.12921436 249.11490916 2.13144509 250.04475973 2.13374341 251.00278759 C2.12115559 255.13172946 2.0499894 258.97435214 1 263 C0.67 263 0.34 263 0 263 C-0.82828024 238.4131134 -1.15235711 213.85489653 -1.1343255 189.25494719 C-1.1317179 184.54729383 -1.1341625 179.839642 -1.13571167 175.13198853 C-1.13751218 167.22405643 -1.13518627 159.31613378 -1.13037109 151.40820312 C-1.12555613 143.41112658 -1.12553583 135.41406871 -1.13037109 127.41699219 C-1.18101695 41.70478635 -1.18101695 41.70478635 0 0 Z " fill="#FE7637" transform="translate(938,539)"/>
<path d="M0 0 C-0.33 0.99 -0.66 1.98 -1 3 C-2.0725 2.95875 -3.145 2.9175 -4.25 2.875 C-21.56011672 2.90552931 -40.5526109 9.44421185 -56 17 C-56.60521484 17.29310059 -57.21042969 17.58620117 -57.83398438 17.88818359 C-59.95546053 18.91819754 -62.07222273 19.95731835 -64.1875 21 C-65.20444946 21.49850464 -65.20444946 21.49850464 -66.24194336 22.00708008 C-69.4207615 23.59434262 -72.43472436 25.23312178 -75.36328125 27.25 C-78 29 -78 29 -80 29 C-80 29.66 -80 30.32 -80 31 C-81.41124905 31.95566565 -82.82734277 32.90493362 -84.26660156 33.81787109 C-87.24037164 35.84589852 -89.77118387 38.33844603 -92.375 40.8125 C-93.51989178 41.88902306 -94.66572176 42.96454923 -95.8125 44.0390625 C-96.36035156 44.55243164 -96.90820312 45.06580078 -97.47265625 45.59472656 C-99.3877559 47.35676518 -101.37476378 49.02324096 -103.375 50.6875 C-107.5638295 54.31430626 -110.71458215 58.56505672 -114 63 C-115.80197762 65.29071276 -117.61151989 67.5752821 -119.421875 69.859375 C-122.99204156 74.70207617 -125.69012138 80.07054267 -128.5 85.375 C-128.89058594 86.10460937 -129.28117187 86.83421875 -129.68359375 87.5859375 C-132.01671173 91.98508252 -134.09853968 96.39791487 -136 101 C-136.36222656 101.83144531 -136.72445312 102.66289062 -137.09765625 103.51953125 C-139.2111697 108.54233448 -140.62089179 113.33973081 -141.5703125 118.703125 C-142 121 -142 121 -143 124.4375 C-144.81701078 130.91060091 -146.15204798 137.31808593 -146 144.0625 C-146 145.361875 -146 146.66125 -146 148 C-146.99 148.99 -146.99 148.99 -148 150 C-149 149 -149 149 -149.19140625 145.1796875 C-148.82095202 115.39046284 -134.39166343 82.22093892 -115 60 C-114.19304687 59.06800781 -113.38609375 58.13601562 -112.5546875 57.17578125 C-108.83912275 52.9758442 -105.01683944 48.91384355 -101 45 C-100.48824219 44.443125 -99.97648437 43.88625 -99.44921875 43.3125 C-75.635944 18.02045659 -34.92241669 -0.71270238 0 0 Z " fill="#FECF39" transform="translate(233,84)"/>
<path d="M0 0 C-6.5539765 4.09623531 -15.58170618 3.14176054 -23.02246094 3.12025452 C-24.11143771 3.12110894 -25.20041449 3.12196337 -26.32239056 3.12284368 C-29.95973561 3.12448662 -33.59703422 3.11899654 -37.234375 3.11352539 C-39.84635924 3.11324324 -42.45834356 3.1134018 -45.07032776 3.1139679 C-50.68781004 3.11449118 -56.30528066 3.11136478 -61.92276001 3.10573006 C-70.0446015 3.09758861 -78.16643738 3.09499713 -86.28828251 3.09374207 C-99.46676836 3.0915557 -112.64524799 3.08490688 -125.82373047 3.07543945 C-138.62223276 3.06625459 -151.42073336 3.05917901 -164.21923828 3.05493164 C-165.40341634 3.05453756 -165.40341634 3.05453756 -166.61151719 3.05413551 C-170.57213099 3.05283043 -174.5327448 3.05156673 -178.49335861 3.05032361 C-211.32891026 3.03996393 -244.1644543 3.02235692 -277 3 C-277 2.67 -277 2.34 -277 2 C-276.17989806 1.99739563 -276.17989806 1.99739563 -275.3432284 1.99473864 C-242.92619803 1.89166975 -210.509189 1.78354861 -178.09219769 1.66888306 C-174.19826539 1.65511378 -170.30433293 1.64138664 -166.41040039 1.62768555 C-165.63520134 1.62495724 -164.8600023 1.62222894 -164.06131237 1.61941796 C-151.51587271 1.57536486 -138.9704242 1.53472365 -126.42496908 1.49534739 C-113.54842081 1.45485583 -100.6718889 1.41068833 -87.7953648 1.36312145 C-79.85239448 1.33389497 -71.90942527 1.30752227 -63.96643358 1.28482103 C-57.87171918 1.26709476 -51.77703484 1.2442496 -45.68234444 1.21950912 C-43.18505419 1.21016963 -40.68775713 1.2024833 -38.19045639 1.19658089 C-34.77790233 1.18826685 -31.36542277 1.1739756 -27.95289612 1.15821838 C-26.47474964 1.15675122 -26.47474964 1.15675122 -24.96674162 1.15525442 C-16.6150534 1.10575168 -7.90930684 -1.54747308 0 0 Z " fill="#FE6D29" transform="translate(808,937)"/>
<path d="M0 0 C0.33 0 0.66 0 1 0 C1 14.52 1 29.04 1 44 C13.87 44 26.74 44 40 44 C40 32.45 40 20.9 40 9 C42 11 42 11 42.22705078 14.43994141 C42.22655041 15.91051974 42.2154947 17.38112258 42.1953125 18.8515625 C42.19329834 19.53758545 42.19128418 20.2236084 42.18920898 20.93041992 C42.17873758 23.49534787 42.15081496 26.06018059 42.125 28.625 C42.08375 34.35875 42.0425 40.0925 42 46 C28.14 46 14.28 46 0 46 C0 30.82 0 15.64 0 0 Z " fill="#162B68" transform="translate(445,517)"/>
<path d="M0 0 C0.99 0.495 0.99 0.495 2 1 C-0.38064508 6.95161269 -4.40368843 10.641885 -9 15 C-9.55816406 15.69867188 -10.11632812 16.39734375 -10.69140625 17.1171875 C-16.3077818 21.69771713 -24.42232167 21.26288123 -31.33984375 21.01171875 C-32.18801163 20.98906448 -33.0361795 20.96641022 -33.91004944 20.94306946 C-35.68408479 20.89351426 -37.45797857 20.83862165 -39.23168945 20.77856445 C-41.9543684 20.68693229 -44.67711891 20.6126485 -47.40039062 20.54101562 C-49.13023785 20.49058571 -50.8600572 20.43918859 -52.58984375 20.38671875 C-53.40436508 20.36373215 -54.21888641 20.34074554 -55.05809021 20.31706238 C-60.76692608 20.11653696 -60.76692608 20.11653696 -63 19 C-63 18.34 -63 17.68 -63 17 C-64.32 16.67 -65.64 16.34 -67 16 C-67 15.34 -67 14.68 -67 14 C-67.99 13.67 -68.98 13.34 -70 13 C-70 12.34 -70 11.68 -70 11 C-76.43311296 10.90492937 -82.65758005 10.84683274 -89 12 C-86.758548 8.99460743 -84.3208704 8.33332822 -80.70751953 7.66845703 C-71.93608254 6.39419219 -71.93608254 6.39419219 -68.99609375 8.296875 C-67.625 10.125 -67.625 10.125 -66.45019531 12.03857422 C-63.75498699 15.68391154 -60.30598847 16.86710326 -56 18 C-50.95779414 18.49655183 -45.97985692 18.57644349 -40.91674805 18.52148438 C-38.57039664 18.50007206 -36.22711669 18.52133751 -33.88085938 18.546875 C-24.53959401 18.56570095 -16.06990111 18.15991886 -8.5625 12 C-8.046875 11.34 -7.53125 10.68 -7 10 C-6.46375 9.34 -5.9275 8.68 -5.375 8 C-4.04274363 6.06217255 -2.98916854 4.13051686 -2 2 C-1.34 2 -0.68 2 0 2 C0 1.34 0 0.68 0 0 Z " fill="#F9DF44" transform="translate(349,181)"/>
<path d="M0 0 C0.66 0.33 1.32 0.66 2 1 C1.57847656 1.62648437 1.15695312 2.25296875 0.72265625 2.8984375 C0.17480469 3.71570313 -0.37304688 4.53296875 -0.9375 5.375 C-1.48277344 6.18710938 -2.02804687 6.99921875 -2.58984375 7.8359375 C-6.38153423 13.65476445 -5.62501662 21.24004372 -5 28 C-3.46769747 34.20305604 0.68568037 38.60724227 6 42 C11.09609936 44.5289721 15.27027488 45.4671002 20.98828125 45.46875 C21.73152145 45.47636353 22.47476166 45.48397705 23.24052429 45.49182129 C24.80443995 45.50256471 26.36842702 45.50549897 27.93237305 45.50097656 C30.29665878 45.5000065 32.65766783 45.54163901 35.02148438 45.5859375 C44.34991132 45.66003217 52.61819273 45.23812762 59.70092773 38.34448242 C61.27262543 36.57194041 61.27262543 36.57194041 63 34 C63.495 35.98 63.495 35.98 64 38 C62.515 38.495 62.515 38.495 61 39 C61 39.66 61 40.32 61 41 C59.625 42.5 59.625 42.5 58 44 C57.01 44.99 57.01 44.99 56 46 C48.80279516 47.68875236 41.21306343 47.29885157 33.86132812 47.35009766 C32.12746739 47.36663223 30.39367412 47.39388954 28.66015625 47.43212891 C8.30027963 47.87759805 8.30027963 47.87759805 -0.11791992 40.02416992 C-5.74089581 34.15524071 -8.14209592 28.65164276 -8.375 20.5 C-8.14670806 11.82490613 -5.15143058 6.82216482 0 0 Z " fill="#F5DD44" transform="translate(416,154)"/>
<path d="M0 0 C5.44018496 -0.1251281 10.87950276 -0.21504714 16.32080078 -0.2746582 C18.16535055 -0.29954983 20.00980437 -0.33347631 21.85400391 -0.37719727 C44.25968178 -0.89443861 44.25968178 -0.89443861 54 5 C56.95061021 8.76346742 60 13.04606749 60 18 C60.66 18 61.32 18 62 18 C63.10370043 21.3111013 62.92673641 23.24748949 62.5625 26.6875 C62.46066406 27.68136719 62.35882813 28.67523438 62.25390625 29.69921875 C62.12822266 30.83810547 62.12822266 30.83810547 62 32 C61.67 32 61.34 32 61 32 C60.90203125 31.2265625 60.8040625 30.453125 60.703125 29.65625 C59.23744507 19.44703116 57.03902469 13.27283526 49.1953125 6.4453125 C44.00454766 3.02790504 38.69508421 2.69185783 32.63671875 2.69921875 C31.84529984 2.69493362 31.05388092 2.6906485 30.23847961 2.68623352 C28.57021029 2.68051327 26.90191603 2.67997289 25.23364258 2.68432617 C22.70544976 2.68747763 20.17843839 2.66402867 17.65039062 2.63867188 C9.54957687 2.6083295 2.53655418 2.65140207 -5 6 C-3.625 4.5 -3.625 4.5 -2 3 C-1.34 3 -0.68 3 0 3 C0 2.01 0 1.02 0 0 Z " fill="#F9DD44" transform="translate(288,147)"/>
<path d="M0 0 C0.66 0 1.32 0 2 0 C3.43263031 4.67992569 4.41148257 9.12371275 5 14 C5.07831055 14.64396729 5.15662109 15.28793457 5.23730469 15.95141602 C7.00881824 31.11606217 7.61521992 45.91385536 5 61 C4.34 60.67 3.68 60.34 3 60 C3.01571045 58.78642822 3.0314209 57.57285645 3.04760742 56.32250977 C3.10270915 51.73582843 3.13663589 47.14917503 3.16479492 42.56225586 C3.17970165 40.59280446 3.20003414 38.62338515 3.22631836 36.65405273 C3.38976267 24.07525012 2.73111505 12.29874168 0 0 Z " fill="#FE9746" transform="translate(786,712)"/>
<path d="M0 0 C0.66 0.33 1.32 0.66 2 1 C-0.00871092 3.67828123 -1.76508727 5.83231649 -4.50292969 7.78662109 C-9.97197088 12.63432616 -10.85211152 21.18598175 -11.40429688 28.23339844 C-11.65019261 32.61253749 -11.70852284 36.98999621 -11.75 41.375 C-11.77824861 42.90107407 -11.80818791 44.42711781 -11.83984375 45.953125 C-11.9126363 49.63527436 -11.96284628 53.31729771 -12 57 C-12.33 57 -12.66 57 -13 57 C-13.09968046 51.77137669 -13.17184747 46.54331956 -13.21972656 41.31396484 C-13.23970839 39.53912711 -13.26690355 37.76435406 -13.30175781 35.98974609 C-13.73666201 13.25960596 -13.73666201 13.25960596 -5.375 4.4375 C-4.78460938 3.79683594 -4.19421875 3.15617188 -3.5859375 2.49609375 C-2 1 -2 1 0 0 Z " fill="#FEBE22" transform="translate(257,193)"/>
<path d="M0 0 C0.76699219 0.88945312 1.53398437 1.77890625 2.32421875 2.6953125 C4.41987178 4.07778518 6.55240554 5.2738701 8.75 6.484375 C9.26949219 6.88398438 9.78898437 7.28359375 10.32421875 7.6953125 C10.32421875 8.6853125 10.32421875 9.6753125 10.32421875 10.6953125 C9.00421875 10.3653125 7.68421875 10.0353125 6.32421875 9.6953125 C6.32421875 9.0353125 6.32421875 8.3753125 6.32421875 7.6953125 C5.00421875 7.3653125 3.68421875 7.0353125 2.32421875 6.6953125 C2.32421875 6.0353125 2.32421875 5.3753125 2.32421875 4.6953125 C1.33421875 4.3653125 0.34421875 4.0353125 -0.67578125 3.6953125 C-0.67578125 3.0353125 -0.67578125 2.3753125 -0.67578125 1.6953125 C-7.10889421 1.60024187 -13.3333613 1.54214524 -19.67578125 2.6953125 C-17.00355248 -0.81564501 -14.0222083 -1.12640324 -9.80078125 -1.8046875 C-8.58648437 -2.02125 -7.3721875 -2.2378125 -6.12109375 -2.4609375 C-2.67578125 -2.3046875 -2.67578125 -2.3046875 0 0 Z " fill="#FDC43B" transform="translate(279.67578125,190.3046875)"/>
<path d="M0 0 C0.33 0 0.66 0 1 0 C1.37393653 6.96352915 0.00895184 12.92481308 -1.8125 19.625 C-2.07353516 20.635625 -2.33457031 21.64625 -2.60351562 22.6875 C-3.9579629 27.78423493 -5.39064962 32.40817021 -8 37 C-9.31625194 34.36749612 -8.74813658 33.19820944 -8.0625 30.375 C-7.86785156 29.55773437 -7.67320312 28.74046875 -7.47265625 27.8984375 C-7.31667969 27.27195312 -7.16070313 26.64546875 -7 26 C-6.34 26 -5.68 26 -5 26 C-4.89042969 25.37996094 -4.78085937 24.75992188 -4.66796875 24.12109375 C-3.22420361 16.05713725 -1.6253014 8.02898891 0 0 Z " fill="#FE6527" transform="translate(937,803)"/>
<path d="M0 0 C0.66 0.33 1.32 0.66 2 1 C-1.51378348 7.77836245 -5.15619208 14.08911558 -10 20 C-10.60328125 20.74894531 -11.2065625 21.49789062 -11.828125 22.26953125 C-15.36217061 26.50890109 -15.36217061 26.50890109 -17 28 C-17.99 28 -18.98 28 -20 28 C-19.29037109 27.26910156 -19.29037109 27.26910156 -18.56640625 26.5234375 C-11.08201601 18.49923743 -5.59577136 9.39101061 0 0 Z " fill="#FD8B45" transform="translate(774,816)"/>
<path d="M0 0 C-1.12277344 0.44730469 -2.24554687 0.89460937 -3.40234375 1.35546875 C-14.08101359 5.65221951 -14.08101359 5.65221951 -24.26171875 11 C-26.42301044 12.24334983 -28.65247959 13.16700889 -31 14 C-30 11 -30 11 -26.75390625 9.09765625 C-25.36254207 8.40751143 -23.96497915 7.72976785 -22.5625 7.0625 C-21.83836914 6.71131104 -21.11423828 6.36012207 -20.36816406 5.99829102 C-4.95563853 -1.40418366 -4.95563853 -1.40418366 0 0 Z " fill="#FCA648" transform="translate(614,639)"/>
<path d="M0 0 C0.66 0.33 1.32 0.66 2 1 C1.54109375 1.556875 1.0821875 2.11375 0.609375 2.6875 C-5.83774552 10.70576753 -9.31976272 18.09124399 -12 28 C-12.33 28 -12.66 28 -13 28 C-11.79881655 16.38856002 -8.20654488 8.20654488 0 0 Z " fill="#FEC734" transform="translate(231,178)"/>
<path d="M0 0 C0.33 0 0.66 0 1 0 C1.06058594 1.20398438 1.12117187 2.40796875 1.18359375 3.6484375 C1.26799732 5.22397077 1.35264541 6.79949096 1.4375 8.375 C1.47681641 9.1690625 1.51613281 9.963125 1.55664062 10.78125 C1.68893404 15.02601221 1.68893404 15.02601221 3 19 C2.74891579 21.73018005 2.43964691 24.4123533 2.0625 27.125 C1.91264648 28.25615234 1.91264648 28.25615234 1.75976562 29.41015625 C1.51201596 31.27417753 1.25671943 33.13719288 1 35 C0.34 34.67 -0.32 34.34 -1 34 C-0.67 22.78 -0.34 11.56 0 0 Z " fill="#F57547" transform="translate(790,738)"/>
<path d="M0 0 C2 1 2 1 2.88549805 3.08544922 C3.82872116 6.01262087 4.76871511 8.94004386 5.6875 11.875 C6.18733398 13.40447266 6.18733398 13.40447266 6.69726562 14.96484375 C7.00728516 15.94324219 7.31730469 16.92164063 7.63671875 17.9296875 C8.06537231 19.27909424 8.06537231 19.27909424 8.50268555 20.65576172 C9 23 9 23 8 26 C7.75765625 25.38253906 7.5153125 24.76507813 7.265625 24.12890625 C6.93046875 23.28199219 6.5953125 22.43507813 6.25 21.5625 C5.70859375 20.19351562 5.70859375 20.19351562 5.15625 18.796875 C4.10390257 16.2513319 2.94702486 13.7920515 1.75 11.3125 C-0.07435655 7.30746725 -0.3714218 4.3642062 0 0 Z " fill="#FEBC2D" transform="translate(232,331)"/>
<path d="M0 0 C0 0.33 0 0.66 0 1 C-0.88300781 1.15855469 -1.76601563 1.31710938 -2.67578125 1.48046875 C-9.95943372 2.89651719 -16.28391981 4.70829008 -22.890625 8.109375 C-23.58671875 8.40328125 -24.2828125 8.6971875 -25 9 C-25.66 8.67 -26.32 8.34 -27 8 C-26.01 7.67 -25.02 7.34 -24 7 C-24 6.34 -24 5.68 -24 5 C-22.02 4.67 -20.04 4.34 -18 4 C-18 3.34 -18 2.68 -18 2 C-11.88019467 0.59545452 -6.28260706 -0.23268915 0 0 Z " fill="#FEC635" transform="translate(266,163)"/>
<path d="M0 0 C0.66 0.33 1.32 0.66 2 1 C-6.96877226 4.90895605 -16.10537157 8.29274049 -26 8 C-22.8108169 5.20661051 -20.35977779 4.48916189 -16.1875 3.9375 C-10.52727662 3.10917463 -5.42379977 1.80793326 0 0 Z " fill="#FD682B" transform="translate(835,929)"/>
<path d="M0 0 C10.89 0 21.78 0 33 0 C33 0.66 33 1.32 33 2 C26.55968568 3.16091503 20.21867427 3.14845125 13.6875 3.125 C12.59115234 3.12886719 11.49480469 3.13273438 10.36523438 3.13671875 C8.79805664 3.13478516 8.79805664 3.13478516 7.19921875 3.1328125 C6.24877686 3.13168457 5.29833496 3.13055664 4.3190918 3.12939453 C2 3 2 3 0 2 C0 1.34 0 0.68 0 0 Z " fill="#FE9447" transform="translate(631,891)"/>
<path d="M0 0 C7.59 0 15.18 0 23 0 C23.33 0.66 23.66 1.32 24 2 C19.84373632 3.00926479 15.95634906 3.10239579 11.6875 3.0625 C10.43324219 3.05347656 9.17898438 3.04445313 7.88671875 3.03515625 C6.93410156 3.02355469 5.98148438 3.01195312 5 3 C5 2.34 5 1.68 5 1 C3.35 1 1.7 1 0 1 C0 0.67 0 0.34 0 0 Z " fill="#F78248" transform="translate(558,892)"/>
<path d="M0 0 C0.66 0 1.32 0 2 0 C0.57213608 5.05184464 -1.64634543 8.9773155 -4.5 13.3125 C-4.90347656 13.94478516 -5.30695312 14.57707031 -5.72265625 15.22851562 C-8.73612351 19.86806176 -8.73612351 19.86806176 -11 21 C-10.34 19.02 -9.68 17.04 -9 15 C-8.34 15 -7.68 15 -7 15 C-7 14.01 -7 13.02 -7 12 C-6.34 12 -5.68 12 -5 12 C-4.34 9.69 -3.68 7.38 -3 5 C-2.34 5 -1.68 5 -1 5 C-0.67 3.35 -0.34 1.7 0 0 Z " fill="#FE6C2E" transform="translate(920,854)"/>
<path d="M0 0 C3.28560634 2.49706082 3.95805055 3.73216888 4.609375 7.890625 C4.67539233 9.34300623 4.7217497 10.79639364 4.75 12.25 C4.77964844 12.99507813 4.80929688 13.74015625 4.83984375 14.5078125 C4.9102343 16.33796672 4.95741832 18.16898769 5 20 C2.94550007 16.9182501 2.25524191 14.6904243 1.375 11.125 C0.98441406 9.58199219 0.98441406 9.58199219 0.5859375 8.0078125 C0.04698884 5.24120939 -0.11394368 2.80715804 0 0 Z " fill="#FEBD32" transform="translate(251,292)"/>
<path d="M0 0 C0.33 1.32 0.66 2.64 1 4 C0.01 4.33 -0.98 4.66 -2 5 C-2 5.66 -2 6.32 -2 7 C-3.375 8.5 -3.375 8.5 -5 10 C-5.66 10.66 -6.32 11.32 -7 12 C-9.65537372 12.56520003 -12.29144713 12.73788198 -15 13 C-15 12.34 -15 11.68 -15 11 C-14.33613281 10.70867187 -13.67226563 10.41734375 -12.98828125 10.1171875 C-7.27089599 7.46298529 -3.61767738 5.18533757 0 0 Z " fill="#F0CB49" transform="translate(479,188)"/>
<path d="M0 0 C-3.40351338 2.03219488 -6.3232927 2.36891039 -10.25 2.625 C-11.86648438 2.73714844 -11.86648438 2.73714844 -13.515625 2.8515625 C-14.33546875 2.90054688 -15.1553125 2.94953125 -16 3 C-16.33 2.34 -16.66 1.68 -17 1 C-16.06027344 0.90912109 -16.06027344 0.90912109 -15.1015625 0.81640625 C-13.87566406 0.69072266 -13.87566406 0.69072266 -12.625 0.5625 C-11.81289063 0.48128906 -11.00078125 0.40007813 -10.1640625 0.31640625 C-3.4214876 -0.66942149 -3.4214876 -0.66942149 0 0 Z " fill="#FE6F34" transform="translate(808,937)"/>
<path d="M0 0 C0.99 1.0828125 0.99 1.0828125 2 2.1875 C4.79668265 5.03254027 7.94758435 6.87316107 11.42578125 8.7890625 C11.94527344 9.18867188 12.46476562 9.58828125 13 10 C13 10.99 13 11.98 13 13 C11.68 12.67 10.36 12.34 9 12 C9 11.34 9 10.68 9 10 C7.68 9.67 6.36 9.34 5 9 C5 8.34 5 7.68 5 7 C4.01 6.67 3.02 6.34 2 6 C0 3 0 3 0 0 Z " fill="#F0D04A" transform="translate(277,188)"/>
<path d="M0 0 C5.95051673 1.00497616 10.0423524 2.39443811 15 6 C16.64619113 6.71573527 18.30728055 7.4025696 20 8 C15.66972837 9.44342388 12.82252082 7.4808816 8.875 5.6875 C7.76318359 5.20506836 7.76318359 5.20506836 6.62890625 4.71289062 C1.13323045 2.26646091 1.13323045 2.26646091 0 0 Z " fill="#FE9933" transform="translate(168,921)"/>
<path d="M0 0 C7.57771707 -0.50146657 12.45783241 0.05001202 19 4 C14.92151537 5.35949488 11.82319055 4.14486103 7.8125 3.0625 C7.06291016 2.86720703 6.31332031 2.67191406 5.54101562 2.47070312 C3.69206541 1.98785625 1.84576224 1.49489367 0 1 C0 0.67 0 0.34 0 0 Z " fill="#FEB933" transform="translate(491,163)"/>
<path d="M0 0 C0 0.99 0 1.98 0 3 C-9.1875 10 -9.1875 10 -14 10 C-14 9.34 -14 8.68 -14 8 C-9.38 5.36 -4.76 2.72 0 0 Z " fill="#FD8846" transform="translate(726,868)"/>
<path d="M0 0 C0.66 0 1.32 0 2 0 C2.16890918 2.22899787 2.33503687 4.45820662 2.5 6.6875 C2.5928125 7.92886719 2.685625 9.17023437 2.78125 10.44921875 C2.95779937 13.31499329 3.04388528 16.13099957 3 19 C2.34 19 1.68 19 1 19 C0.67 12.73 0.34 6.46 0 0 Z " fill="#FD9747" transform="translate(777,669)"/>
<path d="M0 0 C1.32 0 2.64 0 4 0 C2.63629701 2.99220268 1.05091917 5.29026529 -1.125 7.75 C-1.93324219 8.67039062 -1.93324219 8.67039062 -2.7578125 9.609375 C-3.16773438 10.06828125 -3.57765625 10.5271875 -4 11 C-4.33 10.01 -4.66 9.02 -5 8 C-4.34 7.67 -3.68 7.34 -3 7 C-1.94647157 4.69034152 -0.94280904 2.3570226 0 0 Z " fill="#FE6F34" transform="translate(905,875)"/>
<path d="M0 0 C4.53972614 0.54476714 8.8321218 1.061452 13 3 C14.375 5.625 14.375 5.625 15 8 C11.26610512 8 10.32196394 6.62867361 7.62890625 4.24609375 C5.29305303 2.45919405 2.81797989 1.73804235 0 1 C0 0.67 0 0.34 0 0 Z " fill="#ECD047" transform="translate(329,149)"/>
<path d="M0 0 C1.15957207 3.47871621 0.77456651 4.34219645 -0.4375 7.6875 C-0.86869141 8.89986328 -0.86869141 8.89986328 -1.30859375 10.13671875 C-1.53675781 10.75160156 -1.76492187 11.36648437 -2 12 C-2.66 11.67 -3.32 11.34 -4 11 C-3.38461538 3.49230769 -3.38461538 3.49230769 -1.4375 1 C-0.963125 0.67 -0.48875 0.34 0 0 Z " fill="#FEC642" transform="translate(248,205)"/>
<path d="M0 0 C0 0.99 0 1.98 0 3 C-1.051875 2.814375 -2.10375 2.62875 -3.1875 2.4375 C-6.83816032 1.81849462 -6.83816032 1.81849462 -9.75 2.5625 C-12 3 -12 3 -15 1 C-9.69276568 -0.42705634 -5.46108889 -1.4002792 0 0 Z " fill="#FB8B48" transform="translate(616,888)"/>
<path d="M0 0 C-0.33 0.99 -0.66 1.98 -1 3 C-4.08984375 4.01953125 -4.08984375 4.01953125 -7.9375 4.8125 C-9.83822266 5.22435547 -9.83822266 5.22435547 -11.77734375 5.64453125 C-12.84082031 5.76183594 -13.90429688 5.87914062 -15 6 C-15.66 5.34 -16.32 4.68 -17 4 C-16.16855469 3.79503906 -15.33710937 3.59007812 -14.48046875 3.37890625 C-13.39378906 3.10949219 -12.30710937 2.84007812 -11.1875 2.5625 C-9.56908203 2.16224609 -9.56908203 2.16224609 -7.91796875 1.75390625 C-1.12953368 0 -1.12953368 0 0 0 Z " fill="#FC8946" transform="translate(695,884)"/>
<path d="M0 0 C0.33 0 0.66 0 1 0 C1 6.27 1 12.54 1 19 C0.34 19.33 -0.32 19.66 -1 20 C-1 19.34 -1 18.68 -1 18 C-1.66 17.67 -2.32 17.34 -3 17 C-2.34 17 -1.68 17 -1 17 C-0.67 11.39 -0.34 5.78 0 0 Z " fill="#F9BB4F" transform="translate(276,491)"/>
<path d="M0 0 C3.32957948 2.59980864 3.61761712 5.11064555 4.1875 9.1875 C4.42533203 10.81751953 4.42533203 10.81751953 4.66796875 12.48046875 C4.77753906 13.31191406 4.88710938 14.14335937 5 15 C2.82813579 12.82813579 2.3206752 11.50023469 1.375 8.625 C1.11460937 7.85414063 0.85421875 7.08328125 0.5859375 6.2890625 C0 4 0 4 0 0 Z " fill="#FEBB31" transform="translate(260,326)"/>
<path d="M0 0 C0.66 0.33 1.32 0.66 2 1 C-1.63 4.63 -5.26 8.26 -9 12 C-9 8.00102358 -7.64683965 6.93298448 -5 4 C-3.36643049 2.62631655 -1.7074998 1.28062485 0 0 Z " fill="#1A1F4C" transform="translate(613,436)"/>
<path d="M0 0 C0.05399736 1.45792884 0.09279177 2.91642712 0.125 4.375 C0.14820312 5.18710938 0.17140625 5.99921875 0.1953125 6.8359375 C0 9 0 9 -2 11 C-3 10 -3 10 -3.09765625 7.93359375 C-3.08605469 7.10988281 -3.07445313 6.28617188 -3.0625 5.4375 C-3.05347656 4.61121094 -3.04445313 3.78492188 -3.03515625 2.93359375 C-3.02355469 2.29550781 -3.01195313 1.65742188 -3 1 C-1 0 -1 0 0 0 Z " fill="#FED250" transform="translate(87,223)"/>
<path d="M0 0 C0.99 0 1.98 0 3 0 C4.62950412 4.12168689 5.26264601 6.70700357 4 11 C3.67 11 3.34 11 3 11 C0.85714286 3.57142857 0.85714286 3.57142857 0 0 Z " fill="#FDBB43" transform="translate(508,205)"/>
<path d="M0 0 C1 3 1 3 0.00390625 5.48046875 C-0.47175781 6.37378906 -0.94742188 7.26710938 -1.4375 8.1875 C-1.91058594 9.08855469 -2.38367188 9.98960937 -2.87109375 10.91796875 C-3.24363281 11.60503906 -3.61617187 12.29210937 -4 13 C-5.0169313 10.34501768 -5.13022151 9.30844625 -4.00390625 6.640625 C-3.52824219 5.85171875 -3.05257812 5.0628125 -2.5625 4.25 C-2.08941406 3.45078125 -1.61632812 2.6515625 -1.12890625 1.828125 C-0.75636719 1.22484375 -0.38382813 0.6215625 0 0 Z " fill="#FE6B2E" transform="translate(927,841)"/>
<path d="M0 0 C0 0.99 0 1.98 0 3 C-6.625 6 -6.625 6 -10 6 C-10 5.34 -10 4.68 -10 4 C-6.7 2.68 -3.4 1.36 0 0 Z " fill="#FC8846" transform="translate(706,879)"/>
<path d="M0 0 C2 1 2 1 2.703125 2.7421875 C2.88359375 3.44601562 3.0640625 4.14984375 3.25 4.875 C3.44078125 5.57367188 3.6315625 6.27234375 3.828125 6.9921875 C4 9 4 9 2 12 C0.70756464 7.8803623 -0.26252625 4.33168317 0 0 Z " fill="#FDC13F" transform="translate(232,331)"/>
<path d="M0 0 C0.33 0 0.66 0 1 0 C1.33 5.28 1.66 10.56 2 16 C1.01 15.34 0.02 14.68 -1 14 C-0.67 9.38 -0.34 4.76 0 0 Z " fill="#FEBE4F" transform="translate(510,247)"/>
<path d="M0 0 C-1 3 -1 3 -3.9375 4.6875 C-7 6 -7 6 -9 6 C-8 3 -8 3 -5.0625 1.3125 C-2 0 -2 0 0 0 Z " fill="#FED241" transform="translate(178,98)"/>
<path d="M0 0 C0.66 0 1.32 0 2 0 C1.52269162 1.4589426 1.04308958 2.91713496 0.5625 4.375 C0.29566406 5.18710937 0.02882813 5.99921875 -0.24609375 6.8359375 C-1 9 -1 9 -2 11 C-2.66 10.67 -3.32 10.34 -4 10 C-2.68 6.7 -1.36 3.4 0 0 Z " fill="#FC8746" transform="translate(781,800)"/>
<path d="M0 0 C0.66 0.99 1.32 1.98 2 3 C1.25 6.625 1.25 6.625 0 10 C-0.99 10.495 -0.99 10.495 -2 11 C-1.85892253 9.54119891 -1.71197585 8.08296449 -1.5625 6.625 C-1.48128906 5.81289063 -1.40007813 5.00078125 -1.31640625 4.1640625 C-1 2 -1 2 0 0 Z " fill="#FE7138" transform="translate(930,829)"/>
<path d="M0 0 C0.33 0 0.66 0 1 0 C0.67 2.97 0.34 5.94 0 9 C-0.66 9 -1.32 9 -2 9 C-1.125 1.125 -1.125 1.125 0 0 Z " fill="#FDAD37" transform="translate(488,428)"/>
<path d="M0 0 C1.44977894 2.34112451 2.04314411 3.5796929 1.7578125 6.359375 C1.54898438 7.14828125 1.34015625 7.9371875 1.125 8.75 C0.92132813 9.54921875 0.71765625 10.3484375 0.5078125 11.171875 C0.34023437 11.77515625 0.17265625 12.3784375 0 13 C-0.33 13 -0.66 13 -1 13 C-1.02696365 11.20841511 -1.04637917 9.41671527 -1.0625 7.625 C-1.07410156 6.62726563 -1.08570312 5.62953125 -1.09765625 4.6015625 C-1 2 -1 2 0 0 Z " fill="#FECB34" transform="translate(86,215)"/>
<path d="M0 0 C2 1 2 1 3.125 3.375 C4 6 4 6 4 9 C3.01 8.67 2.02 8.34 1 8 C0.67 5.36 0.34 2.72 0 0 Z " fill="#FEBA31" transform="translate(253,389)"/>
<path d="M0 0 C3 1 3 1 4 3 C4.039992 4.99960012 4.04346799 7.00047242 4 9 C1.49701566 6.06171403 0.53069061 3.82097239 0 0 Z " fill="#FDB834" transform="translate(276,372)"/>
<path d="M0 0 C2.31 0 4.62 0 7 0 C6.67 0.99 6.34 1.98 6 3 C3.69 3 1.38 3 -1 3 C-0.67 2.01 -0.34 1.02 0 0 Z " fill="#FED555" transform="translate(226,84)"/>
<path d="M0 0 C0.66 0.33 1.32 0.66 2 1 C2 3.31 2 5.62 2 8 C1.01 8.495 1.01 8.495 0 9 C-0.87890625 2.84765625 -0.87890625 2.84765625 -1 1 C-0.67 0.67 -0.34 0.34 0 0 Z " fill="#FC9148" transform="translate(774,640)"/>
<path d="M0 0 C1.20628008 2.33214148 2.1654738 4.49642139 3 7 C2.01 8.485 2.01 8.485 1 10 C-1.56687367 6.1496895 -0.83288724 4.41430237 0 0 Z " fill="#FEC745" transform="translate(245,247)"/>
<path d="M0 0 C0.99 0 1.98 0 3 0 C1.62845496 2.95409701 0.01136276 5.44008376 -2 8 C-3 5 -3 5 -1.75 2.3125 C-1.1725 1.549375 -0.595 0.78625 0 0 Z " fill="#FED242" transform="translate(108,157)"/>
<path d="M0 0 C0.66 0.33 1.32 0.66 2 1 C-0.475 4.465 -0.475 4.465 -3 8 C-3.66 7.67 -4.32 7.34 -5 7 C-3.88820837 3.66462511 -2.52588702 2.36292656 0 0 Z " fill="#FADD3F" transform="translate(279,155)"/>
</svg>
